<svg width="24" height="24" viewBox="0 0 24 24" fill="none" xmlns="http://www.w3.org/2000/svg">
<path d="M14 13H16C16.5304 13 17.0391 13.2107 17.4142 13.5858C17.7893 13.9609 18 14.4696 18 15V17C18 17.5304 18.2107 18.0391 18.5858 18.4142C18.9609 18.7893 19.4696 19 20 19C20.5304 19 21.0391 18.7893 21.4142 18.4142C21.7893 18.0391 22 17.5304 22 17V10.002C22.0002 9.73809 21.9482 9.47674 21.8469 9.23303C21.7457 8.98932 21.5972 8.76806 21.41 8.582L18 5M14 21V5C14 4.46957 13.7893 3.96086 13.4142 3.58579C13.0391 3.21071 12.5304 3 12 3H5C4.46957 3 3.96086 3.21071 3.58579 3.58579C3.21071 3.96086 3 4.46957 3 5V21M2 21H15M3 7H14" stroke="black" stroke-width="2" stroke-linecap="round" stroke-linejoin="round"/>
<path d="M9 11L7 14H10L8 17" stroke="black" stroke-width="2" stroke-linecap="round" stroke-linejoin="round"/>
</svg>
