<svg width="180" height="64" viewBox="0 0 180 64" fill="none" xmlns="http://www.w3.org/2000/svg">
<path d="M137.022 30.4459C136.339 30.4459 135.927 30.3988 135.645 29.8101L132.878 24.347C132.725 24.0409 132.501 23.7819 132.218 23.5817V23.5346C134.538 22.9459 136.104 20.7913 135.939 18.4013C136.092 15.5402 133.89 13.0913 131.029 12.9382C130.829 12.9382 130.629 12.9382 130.441 12.9382H103.573C102.395 12.9382 101.913 13.421 101.913 14.5983V26.6429C101.913 27.6672 102.042 29.1743 102.042 29.1743H101.995C101.995 29.1743 101.1 27.6201 100.441 26.6429L90.6217 12.9382H88.8674V29.8572C88.9027 30.1633 88.6908 30.4341 88.3846 30.4694C88.3375 30.4694 88.3022 30.4694 88.2551 30.4694H77.0229C76.7286 30.5047 76.4696 30.2928 76.4342 29.9985C76.4342 29.9514 76.4342 29.9043 76.4342 29.8572V23.3227H83.6516V21.6391H76.4342V14.6454H85.3941C85.3941 13.468 84.9114 12.9382 83.734 12.9382H74.5269V30.493C74.5269 31.6703 75.0096 32.1531 76.187 32.1531H89.1028C90.2802 32.1531 90.763 31.6703 90.763 30.493V18.4484C90.763 17.424 90.6099 15.9759 90.6099 15.9759H90.657C90.657 15.9759 91.5518 17.53 92.2347 18.4484L102.054 32.1531H103.82V15.2341C103.785 14.9398 103.997 14.6572 104.291 14.6219C104.326 14.6219 104.373 14.6219 104.409 14.6219H108.8V30.493C108.8 31.6703 109.283 32.1531 110.46 32.1531H118.773C119.95 32.1531 120.433 31.6703 120.433 30.493V28.5738H118.643V29.8454C118.679 30.1515 118.467 30.4223 118.161 30.4576C118.113 30.4576 118.078 30.4576 118.031 30.4576H111.273C110.967 30.493 110.696 30.281 110.661 29.9749C110.661 29.9278 110.661 29.8925 110.661 29.8454V23.3109H117.878V21.6273H110.661V14.6337H124V32.1648H125.908V24.0762H129.122C130.193 24.0762 130.547 24.2057 131.065 25.2301L133.82 30.7167C134.456 31.9647 134.915 32.1766 136.469 32.1766H137.305V30.493H136.928L137.022 30.4459ZM130.229 22.3573H125.967V14.6219H130.252C132.183 14.5041 133.843 15.9641 133.961 17.8832C133.973 18.0716 133.961 18.26 133.961 18.4484C134.149 20.4028 132.725 22.1453 130.77 22.3455C130.594 22.3573 130.417 22.369 130.24 22.3573" fill="white"/>
<path d="M145.947 12.585C148.408 12.479 150.821 13.3268 152.681 14.928L151.563 16.3526C149.985 15.0693 148.007 14.3746 145.97 14.3864C141.708 14.4335 138.294 17.9185 138.329 22.1807C138.329 22.2749 138.329 22.3808 138.329 22.475C138.329 27.0903 141.567 30.6342 145.935 30.6342C148.266 30.5871 150.468 29.5628 152.01 27.8321V25.4655C152.046 25.1594 151.834 24.8886 151.528 24.8533C151.481 24.8533 151.445 24.8533 151.398 24.8533H150.221V23.1697H152.14C153.317 23.1697 153.8 23.6524 153.8 24.8298V32.1295H152.034V30.6696C152.034 30.2575 152.057 29.8572 152.057 29.8572H152.01C150.35 31.5408 148.078 32.4827 145.711 32.4592C140.46 32.4592 136.292 28.2442 136.292 22.4868C136.057 17.2592 140.119 12.8205 145.346 12.5968C145.523 12.5968 145.7 12.5968 145.888 12.5968" fill="white"/>
<path d="M161.053 23.7583L155.919 15.3165C155.684 14.8338 155.177 14.5512 154.648 14.5983H154.212V12.9147H154.954C156.072 12.7616 157.155 13.3974 157.579 14.4453L160.817 19.8848C161.429 20.9091 161.995 22.0511 161.995 22.0511H162.042C162.042 22.0511 162.63 20.8973 163.219 19.8848L166.457 14.4453C166.869 13.3856 167.964 12.7498 169.082 12.9147H169.824V14.5983H169.388C168.859 14.5395 168.352 14.8338 168.14 15.3165L162.96 23.7583V32.1295H161.053V23.7583Z" fill="white"/>
<path d="M76.2931 40.2181H74.5035V37.1805H83.3809C86.6658 37.051 89.4326 39.6059 89.5622 42.8908C89.5622 43.1027 89.5622 43.3028 89.5622 43.5148C89.7741 46.835 87.2427 49.696 83.9225 49.9079C83.7459 49.9079 83.5575 49.9197 83.3809 49.9079H79.8605V56.619H76.2578V40.2417L76.2813 40.2181H76.2931ZM82.7451 46.8232C84.3935 46.9292 85.8181 45.6694 85.9241 44.0093C85.9241 43.8327 85.9241 43.6561 85.9123 43.4794C86.1124 41.8664 84.9586 40.3947 83.3456 40.1946C83.1572 40.171 82.9806 40.171 82.7922 40.1828H79.8605V46.7997H82.7216L82.7451 46.8232Z" fill="white"/>
<path d="M92.8234 40.8303C92.847 40.5242 92.6232 40.2417 92.3171 40.2181C92.2818 40.2181 92.2465 40.2181 92.2112 40.2181H91.0338V37.1805H94.5306C95.861 37.1805 96.3909 37.7456 96.3909 39.0407V52.9456C96.3555 53.2517 96.5792 53.5225 96.8854 53.5578C96.9207 53.5578 96.9442 53.5578 96.9796 53.5578H101.218C101.524 53.5814 101.807 53.3577 101.83 53.0515C101.83 53.0162 101.83 52.9809 101.83 52.9456V51.7682H105.068V54.7352C105.068 56.0303 104.527 56.5955 103.208 56.5955H94.6601C93.365 56.5955 92.7999 56.0656 92.7999 54.7352V40.8303H92.8234Z" fill="white"/>
<path d="M106.858 40.8303C106.881 40.5242 106.658 40.2417 106.352 40.2181C106.316 40.2181 106.281 40.2181 106.246 40.2181H105.068V37.1805H108.565C109.86 37.1805 110.425 37.7456 110.425 39.0407V49.5783C110.26 51.6269 111.791 53.4283 113.851 53.5814C114.063 53.5931 114.275 53.5931 114.487 53.5814C116.548 53.758 118.373 52.2274 118.549 50.1552C118.573 49.9433 118.573 49.7313 118.549 49.5194V39.0407C118.549 37.7692 119.091 37.1805 120.409 37.1805H123.906V40.2181H122.729C122.435 40.1946 122.164 40.4183 122.14 40.7126C122.14 40.7479 122.14 40.795 122.14 40.8303V49.6842C122.14 53.9699 119.103 56.9369 114.534 56.9369C109.966 56.9369 106.881 53.9817 106.881 49.6842V40.8303H106.858Z" fill="white"/>
<path d="M127.509 51.3914C128.722 52.7337 130.405 53.5578 132.207 53.6873C133.69 53.6873 134.985 52.8985 134.985 51.3914C134.985 48.0712 125.849 48.3538 125.849 42.3021C125.849 39.1585 128.58 36.839 132.324 36.839C134.597 36.839 138.094 37.9104 138.094 40.6655V42.4787H134.856V41.6074C134.856 40.7126 133.584 40.1004 132.277 40.1004C130.641 40.1004 129.44 40.9481 129.44 42.1608C129.44 45.481 138.576 44.8099 138.576 51.1913C138.576 54.276 136.21 56.9016 132.124 56.9016C129.581 56.9016 127.156 55.7948 125.46 53.8875L127.474 51.3561H127.497L127.509 51.3914Z" fill="white"/>
<path d="M63.4125 33.9427L49.9668 47.3884C50.426 44.5509 49.59 41.6427 47.6709 39.4999C47.6238 39.4528 47.5885 39.3939 47.5414 39.3469L52.9573 33.9662C52.9573 33.9662 54.9942 31.9058 53.0869 29.9631L48.9072 25.7834C48.9072 25.7834 46.6348 22.8753 44.233 25.2772L39.5588 29.9514L34.3076 29.869L34.1075 24.6649L40.0062 18.7663C40.277 18.519 40.5713 18.2953 40.8774 18.0716C42.3256 16.7294 44.2094 15.9641 46.1874 15.9288C48.2714 15.9876 50.2611 16.8 51.78 18.2247L63.542 29.9867C64.6016 31.0934 64.5663 32.8477 63.4596 33.9074C63.4596 33.9074 63.436 33.9191 63.436 33.9309L63.4125 33.9427Z" fill="#3C9245"/>
<path d="M47.3648 14.1156C46.9644 14.045 46.5641 14.0096 46.1638 14.0096C43.7384 14.045 41.4072 14.9751 39.6058 16.6116C39.5587 16.6352 39.5234 16.6587 39.4763 16.6823L34.1428 11.3488C34.1428 11.3488 32.0824 9.27657 30.1397 11.2192L25.96 15.3989C25.96 15.3989 23.099 17.5889 25.5008 20.0143L30.3281 24.8062V29.8336L24.712 29.9396L19.0017 24.2293C18.6956 23.935 18.4012 23.6171 18.1304 23.2874C16.8588 21.8628 16.1406 20.0378 16.1053 18.1305C16.1053 17.7537 16.1289 17.3769 16.2113 17.012C16.2584 16.6705 16.3408 16.3408 16.4468 16.0112C16.4468 15.9523 16.4703 15.9052 16.4939 15.8581C16.5645 15.5991 16.6587 15.3401 16.7764 15.0928C16.8235 14.9162 16.9059 14.7514 17.0119 14.6101C17.1179 14.3864 17.2356 14.1627 17.3651 13.9508C17.6241 13.5151 17.9303 13.0913 18.2599 12.7027L30.1632 0.787663C31.27 -0.283752 33.036 -0.260201 34.1075 0.846536C34.1192 0.85831 34.131 0.870085 34.1546 0.893632L47.3648 14.1038V14.1156Z" fill="#327A39"/>
<path d="M46.2933 51.0147C46.2933 51.0147 46.2698 51.05 46.2698 51.0618C46.0343 51.3208 45.9166 51.4503 45.9166 51.4503L34.1546 63.2123C33.0478 64.2837 31.2817 64.2602 30.2103 63.1535C30.1986 63.1417 30.1868 63.1299 30.1632 63.1064L16.9766 49.9197C17.3651 49.9668 17.7654 50.0021 18.154 50.0021C20.6147 49.8726 22.9577 48.9425 24.8415 47.353L26.0895 48.6011L27.6907 50.1788L30.1632 52.6512C30.1632 52.6512 32.2237 54.7117 34.1663 52.7807L38.346 48.6011C38.346 48.6011 41.1482 46.4347 38.7581 44.0328L34.0839 39.3586L34.2841 33.872H39.441L40.8421 35.2967L42.6788 37.1334L45.3043 39.7707C45.6105 40.065 45.9048 40.3829 46.1756 40.7126C48.8012 43.6325 48.8483 48.0477 46.2816 51.0265L46.2933 51.0147Z" fill="#51B157"/>
<path d="M30.3163 39.1702L24.2646 45.1867C24.0056 45.4457 23.7348 45.6929 23.4522 45.9284C23.0166 46.3052 22.5456 46.6466 22.0511 46.9527C21.6155 47.2 21.1681 47.4237 20.6972 47.6121H20.6736C20.4735 47.6827 20.2615 47.7416 20.0614 47.8122C19.7788 47.8829 19.4962 47.9653 19.2137 48.0124C18.5072 48.1183 17.7773 48.1066 17.0708 47.9888C16.8707 47.9653 16.6705 47.9299 16.4821 47.8829C15.9994 47.7533 15.5285 47.5885 15.0811 47.4001C15.034 47.4001 15.0104 47.3766 14.9515 47.353C14.6925 47.2235 14.4453 47.094 14.2098 46.9645C14.0567 46.8939 13.9272 46.8114 13.7977 46.729C13.3503 46.4465 12.9264 46.1168 12.5497 45.7636L8.13451 41.3602L0.787665 34.0133C-0.28375 32.9066 -0.260203 31.1405 0.846534 30.0691C0.858307 30.0573 0.870082 30.0456 0.89363 30.0338L14.2922 16.6588C13.8684 19.3903 14.6572 22.1689 16.4586 24.2646L16.6587 24.7473L11.3488 30.0338C11.3488 30.0338 9.27657 32.0942 11.2192 34.0369L15.3989 38.2166C15.3989 38.2166 17.6242 41.0776 20.0143 38.6757L24.8415 33.8838H30.281L30.3046 39.1702H30.3163Z" fill="#6FB966"/>
<path d="M171.166 8.75853H174.204V9.41786H173.109V12.8911H172.273V9.41786H171.178V8.75853H171.166Z" fill="white"/>
<path d="M174.84 8.75853H175.782L177.112 11.8433L178.443 8.75853H179.384V12.9147H178.548V10.2067L177.43 12.9147H176.794L175.676 10.2067V12.9147H174.828V8.75853H174.852H174.84Z" fill="white"/>
</svg>
